<svg width="1.5rem" height="1.5rem" viewBox="0 0 1024 1024" fill="none" xmlns="http://www.w3.org/2000/svg">
<path d="M504 4.6188C508.95 1.76068 515.05 1.76068 520 4.6188L947.405 251.381C952.355 254.239 955.405 259.521 955.405 265.238V758.762C955.405 764.479 952.355 769.761 947.405 772.619L520 1019.38C515.05 1022.24 508.95 1022.24 504 1019.38L76.595 772.619C71.6446 769.761 68.595 764.479 68.595 758.762V265.238C68.595 259.521 71.6446 254.239 76.595 251.381L504 4.6188Z" fill="url(#paint0_linear_18_2)"/>
<path fill-rule="evenodd" clip-rule="evenodd" d="M519.941 1019.41C517.481 1020.82 514.741 1021.52 512 1021.52V521.237C512 515.521 515.05 510.239 520 507.381L953.258 257.232C954.537 259.445 955.286 261.964 955.392 264.592V759.408C955.178 764.724 952.332 769.594 947.794 772.387L520 1019.38C519.98 1019.39 519.961 1019.4 519.941 1019.41Z" fill="white"/>
<defs>
<linearGradient id="paint0_linear_18_2" x1="1024" y1="0" x2="0" y2="1024" gradientUnits="userSpaceOnUse">
<stop offset="0.184197" stop-color="#6B57FF"/>
<stop offset="0.494993" stop-color="#695CC7"/>
<stop offset="0.814316" stop-color="#3F8E9F"/>
</linearGradient>
</defs>
</svg>